<svg viewBox="0 0 166 240" fill="none" xmlns="http://www.w3.org/2000/svg">
<path d="M13.5068 94.4483L7.50677 84.056C8.63593 73.0117 16.8631 68.2616 22.9253 64.7616C34.6886 57.9701 52.0232 66.0289 60.0532 60.0691C70.5615 52.27 72.9049 35.3288 83.5471 29.7617C93.6598 24.4717 103.136 27.69 119.376 25.8191C124.722 25.2032 130.116 14.4221 139.576 7.80595L144.826 16.8992C143.478 20.5644 140.085 32.9829 128.358 37.3765C105.573 45.9125 101.348 34.8779 90.7971 42.3191C81.7709 48.6852 88.1281 55.6961 68.1693 72.1266C59.5597 79.2142 37.7638 71.4626 28.4433 78.3191C21.149 83.685 17.5139 89.0555 13.5068 94.4483Z" fill="#F63E31"/>
<path d="M13 131.014L13 119.014C19.5 110.014 29 110.013 36 110.013C49.5831 110.013 60.5659 125.66 70.5 124.514C83.5 123.013 94 109.514 106 110.014C117.403 110.489 124 118.014 139 124.514C143.938 126.653 154 120.014 165.5 119.014V129.514C162.5 132.014 153.353 141.072 141 139.014C117 135.014 118.858 123.345 106 124.514C95 125.514 97 134.764 71.5 139.014C60.5 140.847 45.5 123.236 34 124.514C25 125.513 19.1667 128.347 13 131.014Z" fill="#F63E31"/>
<path d="M3.59838 165.937L8.79997 155.123C18.5588 149.83 27.1199 153.948 33.4281 156.982C45.6688 162.87 48.784 181.73 58.2332 185.003C70.5986 189.287 85.9126 181.672 96.51 187.325C106.58 192.695 109.263 202.336 119.963 214.696C123.486 218.764 135.431 217.143 146.228 221.226L141.677 230.689C137.89 231.641 125.72 235.84 115.48 228.63C95.5862 214.622 102.318 204.911 90.2247 200.391C79.8783 196.525 77.671 205.728 52.8491 198.504C42.1415 195.388 36.2578 173.015 25.3405 169.182C16.7965 166.182 10.3115 166.207 3.59838 165.937Z" fill="#F63E31"/>
</svg>
